<?xml version="1.0" encoding="utf-8"?><!-- Uploaded to: SVG Repo, www.svgrepo.com, Generator: SVG Repo Mixer Tools -->
<svg version="1.1" id="designs" xmlns="http://www.w3.org/2000/svg" xmlns:xlink="http://www.w3.org/1999/xlink" 
	 width="800px" height="800px" viewBox="0 0 32 32" xml:space="preserve">
<style type="text/css">
	.sketchy_een{fill:#111918;}
</style>
<path class="sketchy_een" d="M9.942,2.228C9.91,2.241,9.88,2.254,9.85,2.267C9.819,2.279,9.788,2.292,9.757,2.305
	C9.819,2.278,9.88,2.254,9.942,2.228z M28.769,23.062c-0.005,0.007-0.011,0.013-0.016,0.02c-0.014,0.018-0.027,0.037-0.042,0.056
	C28.73,23.112,28.749,23.087,28.769,23.062z M28.106,21.239L28.106,21.239L28.106,21.239L28.106,21.239z M29.676,20.721
	c-0.017,0.177-0.047,0.353-0.072,0.53c-0.023,0.149-0.04,0.3-0.076,0.447c-0.062,0.266-0.166,0.529-0.31,0.761
	c-0.137,0.22-0.305,0.419-0.466,0.622c-0.075,0.094-0.151,0.187-0.229,0.277c-0.07,0.102-0.159,0.186-0.268,0.25
	c-0.128,0.074-0.268,0.111-0.417,0.111c-0.219,0-0.43-0.087-0.585-0.242c-0.032-0.032-0.048-0.074-0.074-0.11
	c-0.07-0.036-0.142-0.072-0.191-0.129c-0.149-0.179-0.327-0.334-0.498-0.493c-0.468-0.432-0.906-0.897-1.376-1.329
	c-0.255-0.234-0.508-0.47-0.755-0.714c-0.249-0.245-0.496-0.495-0.759-0.727c-0.145-0.126-0.296-0.247-0.432-0.381
	c-0.106-0.104-0.208-0.211-0.311-0.317c-0.253-0.259-0.5-0.523-0.761-0.776c-0.428-0.418-0.885-0.805-1.333-1.202
	c-0.011,0.008-0.021,0.017-0.032,0.025c-0.312,0.269-0.63,0.549-0.893,0.868c-0.028,0.039-0.056,0.078-0.081,0.118
	c-0.207,0.321-0.595,0.455-0.948,0.32c-0.119,0.021-0.242,0.022-0.36-0.011c-0.187-0.051-0.41-0.193-0.493-0.378
	c-0.004-0.01-0.009-0.02-0.014-0.029c-0.063-0.074-0.14-0.134-0.206-0.205c-0.195,0.211-0.392,0.421-0.593,0.627
	c-0.253,0.259-0.51,0.514-0.748,0.785c-0.21,0.238-0.419,0.472-0.644,0.697c-0.491,0.495-0.965,1.006-1.438,1.516
	c-0.498,0.536-1,1.07-1.486,1.618c-0.476,0.534-0.961,1.061-1.465,1.567c-0.243,0.243-0.495,0.479-0.732,0.727
	c-0.225,0.232-0.445,0.464-0.672,0.693c-0.415,0.423-0.817,0.855-1.221,1.291c-0.168,0.181-0.334,0.365-0.513,0.536
	c-0.125,0.121-0.251,0.24-0.366,0.37c-0.174,0.198-0.362,0.383-0.534,0.583c-0.061,0.072-0.122,0.142-0.183,0.214
	c-0.015,0.2-0.091,0.397-0.227,0.534c-0.317,0.317-0.827,0.304-1.148,0c-0.172-0.164-0.33-0.345-0.5-0.515
	c-0.109-0.108-0.206-0.227-0.315-0.334c-0.127-0.123-0.257-0.242-0.383-0.362c-0.221-0.211-0.451-0.427-0.685-0.623
	c-0.219-0.179-0.442-0.355-0.659-0.536c-0.244-0.206-0.464-0.444-0.681-0.678c-0.162-0.174-0.231-0.401-0.215-0.623
	c-0.018-0.149-0.004-0.301,0.086-0.429c0.219-0.312,0.453-0.614,0.714-0.891c0.351-0.372,0.68-0.763,1.038-1.127
	c0.474-0.478,0.933-0.97,1.393-1.461c0.493-0.529,0.976-1.067,1.474-1.589c0.497-0.521,0.978-1.055,1.472-1.578
	c0.236-0.251,0.495-0.479,0.738-0.725c0.206-0.208,0.404-0.423,0.61-0.629c0.393-0.395,0.793-0.78,1.195-1.163
	c0.225-0.213,0.442-0.432,0.678-0.634c0.257-0.217,0.506-0.44,0.744-0.676c0.176-0.174,0.361-0.334,0.547-0.498
	c0.2-0.176,0.393-0.359,0.588-0.541c-0.053-0.06-0.104-0.123-0.134-0.202c-0.101-0.038-0.195-0.094-0.273-0.173
	c-0.296-0.294-0.313-0.819,0-1.112c0.106-0.098,0.206-0.2,0.296-0.312c0.125-0.149,0.264-0.283,0.398-0.423
	c0.244-0.259,0.483-0.524,0.722-0.787c-0.484-0.452-0.978-0.888-1.484-1.316c-0.566-0.478-1.121-0.982-1.62-1.531
	c-0.245-0.268-0.483-0.547-0.748-0.797c-0.293-0.274-0.591-0.54-0.883-0.812C9.304,6.156,8.742,5.599,8.213,5.017
	c-0.091-0.1-0.144-0.219-0.178-0.341C7.961,4.552,7.909,4.417,7.909,4.272c0-0.232,0.096-0.398,0.238-0.572
	c0.17-0.211,0.338-0.432,0.534-0.619c0.14-0.13,0.289-0.255,0.444-0.364C9.24,2.635,9.361,2.565,9.472,2.48
	C9.595,2.386,9.713,2.327,9.85,2.267c0.351-0.139,0.698-0.233,1.081-0.262C10.976,2.001,11.021,2,11.066,2
	c0.373,0,0.754,0.105,1.111,0.197c0.359,0.093,0.714,0.204,1.044,0.377c0.308,0.162,0.596,0.363,0.895,0.544
	c0.632,0.381,1.276,0.746,1.903,1.138c0.325,0.204,0.646,0.417,0.982,0.6c0.321,0.176,0.638,0.368,0.936,0.581
	c0.497,0.353,0.984,0.719,1.501,1.044c0.034-0.03,0.07-0.058,0.103-0.089c0.274-0.249,0.561-0.483,0.851-0.713
	c0.642-0.51,1.227-1.091,1.842-1.631c0.136-0.119,0.288-0.189,0.465-0.204c-0.028-0.243,0.041-0.501,0.21-0.67
	c0.145-0.147,0.347-0.23,0.555-0.23c0.219,0,0.395,0.091,0.555,0.23c0.436,0.381,0.831,0.793,1.229,1.212
	c0.381,0.398,0.766,0.793,1.157,1.182c0.347,0.347,0.715,0.668,1.074,1.004c0.198,0.185,0.395,0.374,0.604,0.547
	c0.181,0.153,0.362,0.31,0.513,0.495c0.1,0.1,0.168,0.219,0.208,0.355c0.038,0.141,0.038,0.285,0,0.427
	c-0.057,0.202-0.191,0.376-0.37,0.481c-0.099,0.058-0.202,0.091-0.307,0.103c-0.563,0.693-1.171,1.352-1.735,2.044
	c-0.2,0.286-0.383,0.587-0.593,0.866c-0.145,0.192-0.301,0.375-0.453,0.561c0.281,0.562,0.564,1.126,0.9,1.657
	c0.344,0.54,0.729,1.052,1.078,1.588c0.215,0.327,0.395,0.676,0.61,1.002c0.2,0.306,0.413,0.606,0.602,0.919
	c0.389,0.642,0.757,1.31,1.008,2.018c0.068,0.193,0.087,0.404,0.106,0.604C29.668,20.4,29.691,20.561,29.676,20.721z M28.111,21.199
	c-0.002,0.014-0.004,0.027-0.005,0.041c-0.004,0.009-0.008,0.018-0.012,0.027c0.004-0.009,0.008-0.018,0.012-0.027
	c-0.002,0.013-0.003,0.027-0.005,0.04c0.002-0.014,0.003-0.027,0.005-0.041C28.108,21.226,28.11,21.212,28.111,21.199z
	 M26.348,11.08c-0.001,0.001-0.002,0.002-0.003,0.004c-0.014,0.018-0.028,0.036-0.041,0.054
	C26.319,11.119,26.333,11.099,26.348,11.08z M23.465,4.782c-0.034,0.123-0.086,0.242-0.179,0.318
	c-0.137,0.115-0.276,0.229-0.415,0.341c0.676,0.616,1.353,1.232,2.008,1.869c0.514,0.499,1.032,0.994,1.57,1.466
	c0.037-0.047,0.076-0.092,0.113-0.139c-0.015,0.02-0.03,0.04-0.045,0.06c0.029-0.038,0.058-0.076,0.087-0.114
	c0.008-0.01,0.016-0.021,0.025-0.031c-0.004,0.005-0.008,0.01-0.011,0.014c0.054-0.071,0.109-0.141,0.162-0.211
	c-0.038,0.049-0.076,0.098-0.113,0.147c0.049-0.063,0.097-0.125,0.146-0.188c0.036-0.047,0.073-0.094,0.109-0.142
	c-0.024,0.031-0.048,0.062-0.072,0.092c0.027-0.034,0.051-0.07,0.077-0.104C26.72,7.962,26.508,7.77,26.3,7.579
	c-0.359-0.328-0.67-0.71-1.006-1.059C24.709,5.912,24.094,5.34,23.465,4.782z M20.197,7.773c0.008-0.011,0.017-0.021,0.025-0.032
	c-0.008,0.01-0.015,0.019-0.023,0.028C20.199,7.771,20.198,7.772,20.197,7.773z M16.645,16.957c-0.234-0.206-0.47-0.41-0.696-0.626
	c-0.287-0.276-0.551-0.568-0.846-0.838c-0.128-0.117-0.263-0.227-0.392-0.343c-0.107,0.093-0.214,0.185-0.322,0.278
	c-0.215,0.187-0.449,0.357-0.642,0.566c-0.198,0.217-0.406,0.43-0.623,0.629c-0.434,0.395-0.857,0.802-1.276,1.214
	c-0.202,0.198-0.411,0.391-0.617,0.587c-0.238,0.23-0.468,0.464-0.697,0.702c-0.202,0.208-0.432,0.387-0.638,0.591
	c-0.255,0.251-0.506,0.506-0.753,0.765c-0.508,0.529-1.038,1.035-1.54,1.567c-0.489,0.519-0.976,1.04-1.467,1.559
	c-0.73,0.768-1.485,1.521-2.147,2.351c0.314,0.334,0.635,0.661,0.993,0.949c0.002,0.002,0.004,0.003,0.006,0.005
	c0.018,0.014,0.037,0.028,0.055,0.042C5.029,26.943,5.015,26.932,5,26.921c0.146,0.115,0.283,0.235,0.422,0.362
	c0.196,0.181,0.404,0.353,0.602,0.532c0.095,0.086,0.189,0.17,0.281,0.259c0.166-0.186,0.321-0.379,0.494-0.557
	c0.121-0.123,0.249-0.236,0.37-0.357c0.16-0.162,0.327-0.317,0.485-0.483c0.206-0.213,0.4-0.436,0.606-0.648
	c0.43-0.446,0.861-0.891,1.28-1.346c0.474-0.511,0.993-0.98,1.465-1.495c0.984-1.074,1.963-2.152,2.932-3.239
	c0.434-0.487,0.88-0.963,1.321-1.44C15.729,18,16.185,17.478,16.645,16.957z M27.231,21.367c0.168,0.149,0.331,0.306,0.499,0.457
	c0.052-0.054,0.104-0.108,0.153-0.164c0.066-0.098,0.122-0.199,0.172-0.305c0.03-0.082,0.052-0.164,0.069-0.25
	c0.015-0.115,0.03-0.231,0.045-0.346c0.019-0.19,0.004-0.374-0.018-0.562c-0.013-0.087-0.028-0.175-0.051-0.259
	c-0.035-0.124-0.082-0.243-0.131-0.361c-0.244-0.537-0.532-1.052-0.851-1.546c-0.164-0.257-0.336-0.508-0.498-0.766
	c-0.179-0.281-0.342-0.57-0.523-0.849c-0.357-0.553-0.746-1.082-1.127-1.62c-0.415-0.583-0.776-1.195-1.108-1.829
	c-0.134-0.256-0.121-0.552,0.014-0.787c0.012-0.173,0.077-0.343,0.202-0.479c0.102-0.109,0.202-0.217,0.296-0.333
	c0.352-0.475,0.648-0.99,1.048-1.427C25.45,9.91,25.479,9.88,25.507,9.85c-0.229-0.238-0.473-0.463-0.707-0.695
	c-0.325-0.323-0.644-0.653-0.972-0.974c-0.319-0.315-0.663-0.598-1.01-0.882c-0.359-0.294-0.709-0.598-1.057-0.904
	c-0.112,0.107-0.223,0.214-0.342,0.314c-0.283,0.236-0.57,0.47-0.844,0.717c-0.137,0.123-0.278,0.246-0.401,0.384
	c-0.063,0.094-0.145,0.172-0.245,0.231c-0.119,0.068-0.245,0.102-0.381,0.102c-0.2,0-0.393-0.079-0.534-0.221
	c-0.008-0.008-0.011-0.02-0.019-0.029c-0.1-0.034-0.195-0.085-0.275-0.163c-0.035-0.034-0.071-0.065-0.108-0.095
	c-0.251-0.191-0.5-0.383-0.748-0.577c-0.214-0.163-0.429-0.324-0.642-0.488c-0.376-0.273-0.8-0.468-1.194-0.714
	c-0.402-0.255-0.814-0.495-1.223-0.738c-0.415-0.249-0.842-0.481-1.257-0.731c-0.365-0.219-0.729-0.458-1.114-0.645
	c-0.353-0.126-0.727-0.201-1.098-0.261c-0.09-0.008-0.18-0.015-0.27-0.011c-0.138,0.026-0.273,0.06-0.405,0.108
	c-0.218,0.106-0.423,0.241-0.618,0.385C9.932,4.054,9.829,4.152,9.737,4.262C9.711,4.296,9.684,4.33,9.658,4.365
	c0.024,0.027,0.049,0.055,0.073,0.082c0.495,0.555,0.993,1.114,1.523,1.635c0.274,0.27,0.553,0.534,0.821,0.81
	c0.262,0.27,0.519,0.546,0.787,0.812c0.515,0.515,1.082,0.978,1.64,1.446c0.257,0.213,0.513,0.427,0.772,0.64
	c0.209,0.173,0.407,0.357,0.616,0.529c0.072,0.052,0.144,0.104,0.205,0.166c0.261,0.261,0.283,0.663,0.1,0.955
	c-0.015,0.175-0.08,0.347-0.209,0.482c-0.219,0.227-0.442,0.453-0.666,0.676c-0.167,0.165-0.338,0.329-0.494,0.507
	c0.804,0.704,1.525,1.495,2.325,2.203c0.4,0.355,0.787,0.719,1.191,1.07c0.172,0.147,0.34,0.296,0.5,0.457
	c0.032,0.031,0.063,0.065,0.095,0.097c0.083-0.083,0.166-0.167,0.25-0.251c0.242-0.243,0.479-0.496,0.749-0.712
	c0.098-0.096,0.213-0.164,0.347-0.202c0.07-0.019,0.14-0.028,0.21-0.028c0.008,0,0.016,0.003,0.024,0.003
	c0.107-0.056,0.221-0.094,0.34-0.094c0.193,0,0.387,0.073,0.534,0.217c0.164,0.16,0.328,0.321,0.495,0.479
	c0.54,0.521,1.074,1.046,1.614,1.565c0.493,0.474,1.023,0.904,1.521,1.37c0.262,0.245,0.515,0.498,0.78,0.742
	c0.251,0.23,0.506,0.457,0.751,0.691C26.781,20.927,26.997,21.157,27.231,21.367z M26.604,8.583
	c0.004-0.006,0.009-0.011,0.013-0.017c-0.018,0.023-0.037,0.047-0.055,0.071C26.576,8.619,26.59,8.601,26.604,8.583z"/>
</svg>