<?xml version="1.0" encoding="utf-8"?>
<!-- Uploaded to: SVG Repo, www.svgrepo.com, Generator: SVG Repo Mixer Tools -->
<svg fill="#000000" height="800px" width="800px" version="1.2" baseProfile="tiny" id="Layer_1" xmlns="http://www.w3.org/2000/svg" xmlns:xlink="http://www.w3.org/1999/xlink"
	  viewBox="-351 153 256 256" xml:space="preserve">
<path d="M-168.6,256.5c0-20.3,8.9-36.6,21.1-44.7h-165c-14.6,2.4-24.3,25.2-24.3,44.7c0,20.3,8,42.3,24.3,44.7h164.9
	C-159.7,293.1-168.6,276.9-168.6,256.5 M-104,286.6c-9.8,22.7-34.2,21.1-34.2,21.1h-174.5c-1.6,18.7-9.8,35.8-33.3,49.5h198.2
	C-107.9,337.8-104,286.6-104,286.6 M-132.7,299.2c-16.4,0-29.8-19.1-29.8-42.7s13.4-42.7,29.8-42.7s29.8,19.1,29.8,42.7
	S-116.3,299.2-132.7,299.2z M-132.7,221.2c-12.6,0-22.9,15.9-22.9,35.3s10.3,35.3,22.9,35.3s22.9-15.9,22.9-35.3
	S-120,221.2-132.7,221.2z M-132.7,287c-11.4,0-19-15.8-19-30.4s7.7-30.4,19-30.4s19,15.8,19,30.4S-121.2,287-132.7,287z
	 M-132.7,233.5c-6.3,0-12.3,11.3-12.3,23.1s6,23.1,12.3,23.1s12.3-11.3,12.3-23.1S-126.3,233.5-132.7,233.5z M-132.7,241.5
	c3.5,0,6.4,6.7,6.4,15c0,8.3-2.9,15-6.4,15s-6.4-6.7-6.4-15C-139.1,248.2-136.2,241.5-132.7,241.5z"/>
</svg>